<svg width="324" height="192" viewBox="0 0 324 192" fill="none" xmlns="http://www.w3.org/2000/svg">
<path d="M20.6667 105.732C18.0833 103.148 16.3611 99.2734 16.3611 95.3984H15.5H14.6389C14.6389 103.579 7.75 110.037 0 110.037V110.898V111.76C8.18056 111.76 14.6389 118.218 14.6389 126.398H16.3611C16.3611 118.218 22.8194 111.76 31 111.76V110.037C27.125 110.468 23.25 108.746 20.6667 105.732Z" fill="#0078D7"/>
<path d="M261.308 186.2L254.899 191.902L249 185.702L255.414 180L261.308 186.2Z" fill="#00B7C3"/>
<path d="M324 62.2478L317.754 80L300 73.7522L306.256 56L324 62.2478Z" fill="#00B7C3"/>
<circle cx="59" cy="16" r="7" fill="#E43BA6"/>
<path d="M191.9 24.9439C192.057 26.0441 186.399 29.1875 184.828 30.7591C183.885 31.7022 183.099 32.6452 182.47 33.5882L176.498 32.9595C176.655 31.3878 176.812 29.659 176.812 28.2444C176.812 25.5726 174.454 20.386 175.083 20.2289C176.969 20.0717 179.012 25.4154 179.798 25.2582C180.741 24.9439 184.042 16.1425 185.456 16.1425C186.714 15.9853 183.885 22.4292 183.885 22.4292C183.885 22.4292 188.6 17.2427 189.7 18.1857C190.328 18.8143 190.328 20.0717 190.8 20.0717C192.215 20.2289 188.914 24.1581 187.657 25.8869C186.871 26.8299 191.743 24.1581 191.9 24.9439Z" fill="#F9DDBF"/>
<path d="M168.641 183.999C211.521 183.999 246.282 149.238 246.282 106.358C246.282 63.4779 211.521 28.7168 168.641 28.7168C125.761 28.7168 91 63.4779 91 106.358C91 149.238 125.761 183.999 168.641 183.999Z" fill="#99C9EE"/>
<path d="M165.655 61.5649C155.439 68.7946 135.322 68.7946 135.322 68.7946C131.55 69.109 128.878 73.6669 129.978 77.2817C131.078 80.7394 133.593 85.7688 137.365 85.6117C137.365 85.6117 162.512 87.3405 174.928 73.3525C180.586 66.9086 184.673 42.8619 183.101 32.6459L176.5 31.0742C176.343 31.2314 173.828 55.7497 165.655 61.5649Z" fill="url(#paint0_linear_6675_37216)"/>
<path d="M147.893 151.308C145.85 151.936 120.074 151.151 104.514 150.05C103.886 149.107 103.1 148.007 102.471 146.907C102.314 146.593 102.157 146.435 102 146.121C99.7994 142.349 97.9134 138.42 96.3417 134.333C96.3417 134.333 96.3417 134.176 96.1846 134.019C96.9704 130.09 97.5991 126.004 98.0706 122.86C98.5421 119.402 97.9134 112.644 97.1276 101.957C96.9704 94.4127 96.9704 85.6113 100.271 77.7529C101.371 75.2382 106.715 68.4799 112.373 68.0084C115.673 67.6941 121.489 67.3798 125.732 67.5369C131.233 68.3228 133.591 68.0084 136.577 69.1086C141.135 70.5231 145.535 79.1674 146.321 86.24C147.736 94.5699 145.535 101.171 143.649 106.358C141.135 110.444 138.934 113.43 137.677 121.603C137.677 127.89 145.221 137.634 147.893 151.308Z" fill="url(#paint1_radial_6675_37216)"/>
<path d="M122.985 70.3662C125.814 70.5234 128.329 70.5234 130.372 70.3662C131.315 70.3662 136.03 69.2661 135.244 68.7946C133.201 67.3801 134.301 64.2367 134.93 60.4646L137.759 50.4059L123.771 48.0483L122.671 56.0639C122.042 61.2505 117.642 66.9085 114.812 68.0087C116.07 69.2661 118.899 70.2091 122.985 70.3662Z" fill="url(#paint2_radial_6675_37216)"/>
<path d="M171.942 123.805C176.5 124.119 178.229 124.276 181.529 124.905C186.244 126.005 194.26 128.205 194.574 126.948C194.732 126.476 191.903 124.748 191.903 124.748C191.903 124.748 194.417 125.691 194.574 125.062C194.732 124.433 190.174 121.604 188.916 120.19C190.488 120.347 194.732 120.661 194.732 119.561C194.732 118.775 189.231 118.304 185.459 117.361C174.771 116.418 172.099 116.732 168.799 117.203C165.655 117.675 164.084 122.39 167.227 123.333C168.642 123.805 170.37 123.647 171.942 123.805Z" fill="#F9DDBF"/>
<path d="M124.32 112.174C120.706 109.502 119.291 97.7146 118.977 91.8994C118.977 91.4279 118.191 79.6403 108.918 79.1687C99.645 78.6972 98.2305 89.5419 98.2305 89.5419C98.2305 89.5419 98.8591 107.302 101.217 114.846C103.574 122.233 107.661 129.305 121.806 131.191C140.98 133.706 170.528 124.433 170.528 124.433L171.157 116.889C170.842 116.732 138.466 122.704 124.32 112.174Z" fill="#0078D4"/>
<path d="M241.097 134.334C239.525 138.42 237.639 142.35 235.282 146.122C235.124 146.436 234.967 146.593 234.81 146.907H102.474C102.317 146.593 102.16 146.436 102.003 146.122C99.8024 142.35 97.9164 138.42 96.3447 134.334H241.097Z" fill="#FFD566"/>
<path d="M235.438 146.123C235.281 146.437 235.124 146.594 234.966 146.908C221.293 169.069 196.775 184 168.799 184C140.823 184 116.304 169.226 102.631 146.908C102.474 146.594 102.316 146.437 102.159 146.123H235.438Z" fill="url(#paint3_linear_6675_37216)"/>
<path d="M173.042 134.806H248.955C250.055 134.806 250.998 133.863 250.998 132.763C250.998 131.663 250.055 130.72 248.955 130.72H173.042C171.942 130.72 170.999 131.663 170.999 132.763C170.999 133.863 171.942 134.806 173.042 134.806Z" fill="#B3AFAB"/>
<g opacity="0.5">
<path opacity="0.5" d="M135.791 58.2641C134.848 59.2072 133.276 59.2072 132.176 58.7357C131.547 58.5785 131.076 58.107 130.604 57.6355C130.133 57.164 129.818 56.5353 129.818 55.9066C129.818 55.7494 129.976 55.5923 130.133 55.5923C130.29 55.5923 130.29 55.5923 130.29 55.5923C131.076 56.221 131.862 56.5353 132.647 56.8496C133.433 57.164 134.219 57.3211 135.319 57.4783C135.476 57.4783 135.634 57.6355 135.634 57.9498C135.948 58.107 135.791 58.2641 135.791 58.2641Z" fill="#BF8F68"/>
</g>
<path d="M196.147 131.034H252.571L263.73 98.8145C264.201 97.5572 263.258 96.2998 262.001 96.2998H209.978C208.878 96.2998 207.935 96.9285 207.621 98.0287L196.147 131.034Z" fill="url(#paint4_linear_6675_37216)"/>
<path d="M108.917 30.9172C113.864 30.9172 117.875 26.9063 117.875 21.9586C117.875 17.0109 113.864 13 108.917 13C103.969 13 99.958 17.0109 99.958 21.9586C99.958 26.9063 103.969 30.9172 108.917 30.9172Z" fill="url(#paint5_linear_6675_37216)"/>
<path d="M130.295 62.1939C143.749 62.1939 154.656 51.287 154.656 37.8328C154.656 24.3785 143.749 13.4717 130.295 13.4717C116.84 13.4717 105.934 24.3785 105.934 37.8328C105.934 51.287 116.84 62.1939 130.295 62.1939Z" fill="#59453C"/>
<path d="M148.611 42.9854C148.904 31.2706 140.981 21.5704 130.915 21.3192C120.849 21.068 112.452 30.361 112.159 42.0757C111.867 53.7905 119.79 63.4907 129.856 63.7419C139.922 63.9931 148.319 54.7001 148.611 42.9854Z" fill="#F9DDBF"/>
<path d="M110.96 41.4467C109.86 42.2325 109.232 43.3327 109.074 44.59C108.917 46.0045 109.232 47.1047 110.017 48.0477C110.803 49.1479 111.903 49.7766 113.161 49.9338C114.575 50.0909 115.833 49.7766 116.776 48.9907C117.719 48.3621 118.347 47.2619 118.662 45.8474C118.819 44.59 118.505 43.3327 117.719 42.2325C116.933 41.2895 115.833 40.6608 114.418 40.5036C113.161 40.3465 112.061 40.6608 110.96 41.4467Z" fill="#F9DDBF"/>
<path d="M143.337 42.2333C142.237 43.0191 141.609 44.1193 141.451 45.3766C141.294 46.7912 141.609 47.8913 142.394 48.8344C143.18 49.9345 144.28 50.5632 145.538 50.7204C146.952 50.8775 148.21 50.5632 149.153 49.7774C150.096 49.1487 150.724 48.0485 151.039 46.634C151.196 45.3766 150.882 44.1193 150.096 43.0191C149.31 42.0761 148.21 41.4474 146.795 41.2903C145.538 41.1331 144.438 41.4474 143.337 42.2333Z" fill="#F9DDBF"/>
<path d="M113.688 24.888C108.913 30.8859 107.277 37.1088 108.65 43.7396C111.686 39.8254 114.675 41.009 118.565 39.9874C123.708 38.6863 129.123 38.8665 133.023 35.2219C138.172 30.3741 139.04 22.6266 138.807 18.6705C138.748 17.4505 121.192 15.9695 113.688 24.888Z" fill="#594539"/>
<path d="M137.381 22.392C135.455 26.4475 135.144 41.1786 150.949 41.9122C151.5 35.7986 152.558 29.7293 149.16 24.8114C145.871 20.4994 140.39 16.0457 137.381 22.392Z" fill="#594539"/>
<path d="M129.819 38.7754L129.977 56.2211L139.564 56.5354V38.7754H129.819Z" fill="url(#paint6_radial_6675_37216)"/>
<path d="M138.152 53.0781C136.266 53.0781 134.38 52.2922 133.122 50.8777C131.708 49.4632 131.079 47.5772 131.079 45.6912C131.079 41.6048 134.537 38.4614 138.466 38.4614C140.509 38.4614 142.238 39.2473 143.653 40.6618C145.067 42.0763 145.696 43.9623 145.696 45.8483C145.539 49.9347 142.238 53.0781 138.152 53.0781ZM138.466 40.1903C135.323 40.1903 132.808 42.5478 132.808 45.6912C132.808 47.1057 133.279 48.5202 134.38 49.6204C135.323 50.7206 136.737 51.1921 138.152 51.3492C141.138 51.3492 143.81 48.9917 143.81 45.8483C143.81 44.4338 143.338 43.0193 142.238 41.9191C141.295 40.819 139.881 40.1903 138.466 40.1903Z" fill="white"/>
<path d="M131.235 44.9052C131.235 44.9052 131.393 47.1056 133.122 49.1488C133.75 49.9346 133.75 51.3491 132.964 52.2921C132.336 53.078 129.821 53.8638 129.664 54.1782H126.363L126.835 44.748L131.235 44.9052Z" fill="#F9DDBF"/>
<path d="M122.117 52.9194C120.231 52.9194 118.344 52.1336 117.087 50.719C115.673 49.3045 115.044 47.4185 115.044 45.5325C115.044 41.4461 118.502 38.3027 122.431 38.3027C126.517 38.3027 129.661 41.7604 129.661 45.6897C129.661 47.5757 128.875 49.4617 127.46 50.8762C126.046 52.1336 124.317 52.9194 122.117 52.9194C122.274 52.9194 122.274 52.9194 122.117 52.9194ZM122.588 40.0316C122.431 40.0316 122.431 40.0316 122.588 40.0316C119.445 40.0316 116.93 42.3891 116.93 45.5325C116.93 46.947 117.401 48.3615 118.502 49.4617C119.445 50.5619 120.859 51.0334 122.274 51.1905C123.688 51.1905 125.103 50.719 126.203 49.6189C127.303 48.5187 127.932 47.2613 127.932 45.6897C127.932 42.5463 125.574 40.0316 122.588 40.0316Z" fill="white"/>
<path d="M128.878 44.9051C128.406 44.9051 127.935 44.4336 127.935 43.9621C127.935 43.4905 128.406 43.019 128.878 43.019H131.864C132.335 43.019 132.807 43.4905 132.807 43.9621C132.807 44.4336 132.335 44.9051 131.864 44.9051H128.878Z" fill="white"/>
<path d="M124.158 45.2883C124.199 43.9 123.669 42.7582 122.975 42.7379C122.281 42.7176 121.685 43.8266 121.645 45.2148C121.604 46.6031 122.134 47.745 122.828 47.7653C123.522 47.7856 124.118 46.6766 124.158 45.2883Z" fill="#33312D"/>
<path d="M138.876 45.7834C138.917 44.3951 138.387 43.2533 137.693 43.233C136.999 43.2127 136.403 44.3217 136.363 45.7099C136.322 47.0982 136.852 48.2401 137.546 48.2604C138.24 48.2807 138.836 47.1717 138.876 45.7834Z" fill="#33312D"/>
<g opacity="0.5">
<path opacity="0.5" d="M132.493 57.3198C131.864 57.6342 131.235 57.9485 130.607 57.9485C129.978 58.1057 129.192 57.9485 128.563 57.9485C127.935 57.7913 127.149 57.477 126.677 57.0055C126.049 56.534 125.734 56.0625 125.42 55.4338C125.263 55.1195 125.42 54.8051 125.734 54.648C125.892 54.4908 126.206 54.648 126.363 54.648H126.52C126.992 54.9623 127.463 55.2767 127.778 55.4338C128.249 55.591 128.721 55.7482 129.192 55.9053C129.664 56.0625 130.135 56.0625 130.607 56.0625C131.078 56.0625 131.707 56.0625 132.178 56.0625H132.335C132.65 56.0625 132.964 56.3768 132.964 56.6912C132.807 57.0055 132.65 57.1627 132.493 57.3198Z" fill="#BF8F68"/>
</g>
<path d="M191.902 24.9439C192.059 26.0441 186.401 29.1875 184.829 30.7591C184.201 31.3878 183.572 32.1737 183.101 32.8023L176.5 31.2306C176.5 30.1305 176.657 29.1875 176.657 28.2444C176.657 25.5726 174.299 20.386 174.928 20.2289C176.814 20.0717 178.857 25.4154 179.643 25.2582C180.586 24.9439 183.886 16.1425 185.301 16.1425C186.558 15.9853 183.729 22.4292 183.729 22.4292C183.729 22.4292 188.444 17.2427 189.545 18.1857C190.173 18.8143 190.173 20.0717 190.645 20.0717C192.059 20.2289 188.759 24.1581 187.501 25.8869C186.873 26.8299 191.745 24.0009 191.902 24.9439Z" fill="#F9DDBF"/>
<path d="M114.419 67.3794C118.191 70.6799 122.12 74.6091 125.264 78.224C126.835 80.11 128.407 82.1532 129.979 84.0392C131.079 85.6109 132.022 87.3398 133.593 88.44C134.694 89.2258 136.265 89.383 137.523 88.7543C138.623 88.1256 139.094 86.8683 139.252 85.7681C139.566 83.7249 139.252 81.6817 138.78 79.6385C138.466 77.7525 137.994 76.0237 137.523 74.2948C137.051 72.4088 136.423 70.5228 135.794 68.7939" stroke="#E1DFDD" stroke-width="0.75" stroke-miterlimit="10" stroke-linecap="round" stroke-linejoin="round"/>
<path d="M140.821 98.972L134.849 99.7578C134.535 99.7578 134.063 99.6007 134.063 99.1292L132.806 89.5419C132.806 89.2276 132.963 88.7561 133.434 88.7561L139.407 87.9702C139.721 87.9702 140.193 88.1274 140.193 88.5989L141.45 98.1862C141.45 98.5005 141.136 98.8148 140.821 98.972Z" fill="white"/>
<path d="M136.812 92.4491L135.565 92.6118L135.728 93.8586L136.975 93.6959L136.812 92.4491Z" fill="#F35325"/>
<path d="M138.212 92.1464L136.965 92.3091L137.128 93.5559L138.374 93.3932L138.212 92.1464Z" fill="#81BC06"/>
<path d="M136.96 93.8681L135.713 94.0308L135.876 95.2775L137.122 95.1148L136.96 93.8681Z" fill="#05A6F0"/>
<path d="M138.535 93.7025L137.288 93.8652L137.451 95.112L138.698 94.9493L138.535 93.7025Z" fill="#FFBA08"/>
<defs>
<linearGradient id="paint0_linear_6675_37216" x1="131.117" y1="56.5683" x2="181.873" y2="60.3253" gradientUnits="userSpaceOnUse">
<stop stop-color="#005A9F"/>
<stop offset="0.0686246" stop-color="#005DA5"/>
<stop offset="0.4257" stop-color="#006CBF"/>
<stop offset="0.7471" stop-color="#0075CE"/>
<stop offset="1" stop-color="#0078D4"/>
</linearGradient>
<radialGradient id="paint1_radial_6675_37216" cx="0" cy="0" r="1" gradientUnits="userSpaceOnUse" gradientTransform="translate(113.888 110.239) scale(20.2771 20.2771)">
<stop stop-color="#005A9F"/>
<stop offset="0.9094" stop-color="#0078D4"/>
</radialGradient>
<radialGradient id="paint2_radial_6675_37216" cx="0" cy="0" r="1" gradientUnits="userSpaceOnUse" gradientTransform="translate(138.347 41.24) scale(27.0896 27.0895)">
<stop offset="0.1135" stop-color="#9A6541"/>
<stop offset="0.9994" stop-color="#F9DDBF"/>
</radialGradient>
<linearGradient id="paint3_linear_6675_37216" x1="168.696" y1="146.091" x2="168.696" y2="183.969" gradientUnits="userSpaceOnUse">
<stop stop-color="#F7B548"/>
<stop offset="1" stop-color="#FFD566"/>
</linearGradient>
<linearGradient id="paint4_linear_6675_37216" x1="229.905" y1="96.351" x2="229.905" y2="131.062" gradientUnits="userSpaceOnUse">
<stop stop-color="#B3AFAB"/>
<stop offset="0.3156" stop-color="#B0ACA8"/>
<stop offset="0.5506" stop-color="#A7A39F"/>
<stop offset="0.7594" stop-color="#96938F"/>
<stop offset="0.9518" stop-color="#807D7A"/>
<stop offset="1" stop-color="#797673"/>
</linearGradient>
<linearGradient id="paint5_linear_6675_37216" x1="105.678" y1="12.6553" x2="111.578" y2="29.6707" gradientUnits="userSpaceOnUse">
<stop offset="0.2689" stop-color="#594539"/>
<stop offset="0.8111" stop-color="#463228"/>
</linearGradient>
<radialGradient id="paint6_radial_6675_37216" cx="0" cy="0" r="1" gradientUnits="userSpaceOnUse" gradientTransform="translate(131.073 49.2665) rotate(1.42944) scale(7.21002 7.21002)">
<stop stop-color="#9A6541" stop-opacity="0.8471"/>
<stop offset="1" stop-color="#F9DDBF" stop-opacity="0"/>
</radialGradient>
</defs>
</svg>
